<?xml version="1.0" standalone="no"?><!DOCTYPE svg PUBLIC "-//W3C//DTD SVG 1.1//EN" "http://www.w3.org/Graphics/SVG/1.1/DTD/svg11.dtd"><svg t="1782896250941" class="icon" viewBox="0 0 1024 1024" version="1.1" xmlns="http://www.w3.org/2000/svg" p-id="11940" xmlns:xlink="http://www.w3.org/1999/xlink" width="200" height="200"><path d="M853.333333 85.333333a42.666667 42.666667 0 0 1 42.666667 42.666667v160.298667l-383.957333 384-0.256 180.821333 181.162666 0.256L896 650.325333V896a42.666667 42.666667 0 0 1-42.666667 42.666667H170.666667a42.666667 42.666667 0 0 1-42.666667-42.666667V128a42.666667 42.666667 0 0 1 42.666667-42.666667h682.666666z m75.861334 290.474667l60.330666 60.330667L657.664 768l-60.416-0.085333 0.085333-60.245334 331.861334-331.861333zM512 512H298.666667v85.333333h213.333333v-85.333333z m128-170.666667H298.666667v85.333334h341.333333V341.333333z" fill="#D5D8DE" p-id="11941"></path></svg>