<?xml version="1.0" standalone="no"?><!DOCTYPE svg PUBLIC "-//W3C//DTD SVG 1.1//EN" "http://www.w3.org/Graphics/SVG/1.1/DTD/svg11.dtd"><svg t="1782896201688" class="icon" viewBox="0 0 1024 1024" version="1.1" xmlns="http://www.w3.org/2000/svg" p-id="7226" xmlns:xlink="http://www.w3.org/1999/xlink" width="200" height="200"><path d="M543.5904 499.319467a113.544533 113.544533 0 0 1 72.618667-105.898667 59.733333 59.733333 0 1 1 81.8176 0 113.544533 113.544533 0 0 1 72.618666 105.898667z" fill="#D5D8DE" p-id="7227"></path><path d="M529.083733 221.8496a34.133333 34.133333 0 0 0-34.133333 34.133333v273.066667a34.133333 34.133333 0 0 0 34.133333 34.133333h273.066667a34.133333 34.133333 0 0 0 34.133333-34.133333v-273.066667a34.133333 34.133333 0 0 0-34.133333-34.133333h-273.066667m0-27.306667h273.066667c33.877333 0 61.44 27.562667 61.44 61.44v273.066667c0 33.877333-27.562667 61.44-61.44 61.44h-273.066667a61.508267 61.508267 0 0 1-61.44-61.44v-273.066667c0-33.877333 27.562667-61.44 61.44-61.44z" fill="#D5D8DE" p-id="7228"></path><path d="M563.217067 819.2h-341.333334a34.133333 34.133333 0 0 1-34.133333-34.133333V443.733333a34.133333 34.133333 0 0 1 34.133333-34.133333h341.333334a34.133333 34.133333 0 0 1 34.133333 34.133333v341.333334a34.133333 34.133333 0 0 1-34.133333 34.133333z m-170.666667-318.600533a59.733333 59.733333 0 0 0-58.487467 60.672 61.44 61.44 0 0 0 25.7536 50.363733 117.76 117.76 0 0 0-60.398933 43.0592 123.255467 123.255467 0 0 0-23.893333 73.506133h234.052266a123.221333 123.221333 0 0 0-23.893333-73.506133 117.845333 117.845333 0 0 0-60.433067-43.0592 61.44 61.44 0 0 0 25.787734-50.363733 59.733333 59.733333 0 0 0-58.487467-60.672z" fill="#D5D8DE" p-id="7229"></path></svg>