<?xml version="1.0" standalone="no"?><!DOCTYPE svg PUBLIC "-//W3C//DTD SVG 1.1//EN" "http://www.w3.org/Graphics/SVG/1.1/DTD/svg11.dtd"><svg t="1782896232400" class="icon" viewBox="0 0 1024 1024" version="1.1" xmlns="http://www.w3.org/2000/svg" p-id="10048" xmlns:xlink="http://www.w3.org/1999/xlink" width="200" height="200"><path fill="#D5D8DE" d="M860.5 788.6h66.3l-0.1 0.1c8.9 0.4 17.3 4.1 23.4 10.5 6.2 6.4 9.6 15 9.6 23.8 0 8.9-3.4 17.4-9.6 23.8-6.2 6.4-14.6 10.2-23.4 10.5h-66.3v66.3c0.2 4.6-0.6 9.3-2.2 13.6-1.6 4.3-4.1 8.3-7.4 11.6-3.2 3.3-7.1 6-11.3 7.8-4.3 1.8-8.9 2.7-13.5 2.7s-9.2-0.9-13.5-2.7c-4.3-1.8-8.1-4.5-11.3-7.8-3.2-3.3-5.7-7.3-7.4-11.6-1.6-4.3-2.4-9-2.2-13.6v-66.3H281.9c-30.5 0-59.8-12.2-81.4-33.7-21.6-21.6-33.7-50.8-33.8-81.4V232.5h-66.3c-4.6 0.2-9.2-0.6-13.6-2.2-4.3-1.6-8.3-4.1-11.6-7.4-3.3-3.2-6-7.1-7.8-11.3-1.8-4.3-2.8-8.8-2.8-13.5s0.9-9.2 2.8-13.5c1.8-4.3 4.5-8.1 7.8-11.3 3.3-3.2 7.3-5.7 11.6-7.4 4.3-1.6 9-2.4 13.6-2.2h66.4V97.4c0.4-8.9 4.1-17.3 10.5-23.4 6.4-6.2 15-9.6 23.8-9.6 8.9 0 17.4 3.4 23.8 9.6 6.4 6.2 10.2 14.6 10.5 23.4v66.3h509.8c30.5 0 59.8 12.2 81.3 33.8 21.6 21.6 33.7 50.8 33.8 81.3v509.8zM423.1 648.4l204.1-117.8c3.5-2 6.4-4.9 8.5-8.4 2-3.5 3.1-7.5 3.1-11.5s-1.1-8-3.1-11.5-4.9-6.4-8.5-8.4L423.1 373c-3.5-2-7.4-3.1-11.5-3.1-4 0-8 1.1-11.5 3.1s-6.4 4.9-8.4 8.4-3.1 7.4-3.1 11.5v235.7c0 4 1.1 8 3.1 11.5s4.9 6.4 8.4 8.4 7.4 3.1 11.5 3.1c4.1-0.1 8.1-1.2 11.5-3.2z" p-id="10049"></path></svg>